<?xml version="1.0" encoding="utf-8"?>
<!-- Generator: Adobe Illustrator 15.1.0, SVG Export Plug-In . SVG Version: 6.00 Build 0)  -->
<!DOCTYPE svg PUBLIC "-//W3C//DTD SVG 1.1//EN" "http://www.w3.org/Graphics/SVG/1.1/DTD/svg11.dtd">
<svg version="1.1" id="Layer_1" xmlns="http://www.w3.org/2000/svg" xmlns:xlink="http://www.w3.org/1999/xlink" x="0px" y="0px"
	 width="406.834px" height="79.125px" viewBox="0 0 406.834 79.125" enable-background="new 0 0 406.834 79.125"
	 xml:space="preserve">
<g>
	<path fill="#ACB9B5" d="M122.6,11.395h7.47v66.147h-7.47V11.395z"/>
	<path fill="#ACB9B5" d="M133.849,77.542l6.03-66.147h8.729l5.94,66.147h-7.29l-0.99-13.5h-4.14l-0.99,13.5H133.849z
		 M144.199,27.504l-1.35,26.279h2.79L144.199,27.504z"/>
	<path fill="#ACB9B5" d="M167.958,29.214c0-2.34,0-9.629-1.44-9.629c-1.08,0-1.26,2.7-1.26,6.57c0,4.32,1.8,9,4.41,15.569
		c3.24,7.83,5.67,14.129,5.67,20.789c0,6.3-1.17,15.749-8.91,15.749c-9.45,0-9.27-13.139-9.27-19.169l7.29-1.08
		c0,2.07,0,11.34,1.98,11.34c1.35,0,1.53-2.16,1.53-6.39c0-5.58-2.07-10.529-5.94-19.799c-1.979-5.31-4.05-11.88-4.05-17.009
		c0-5.76,1.17-15.3,8.37-15.479c8.64-0.18,9,11.969,9,17.459L167.958,29.214z"/>
	<path fill="#ACB9B5" d="M177.948,77.542l6.03-66.147h8.729l5.94,66.147h-7.29l-0.99-13.5h-4.14l-0.99,13.5H177.948z
		 M188.298,27.504l-1.35,26.279h2.79L188.298,27.504z"/>
	<path fill="#ACB9B5" d="M212.058,29.214c0-2.34,0-9.629-1.44-9.629c-1.08,0-1.26,2.7-1.26,6.57c0,4.32,1.8,9,4.41,15.569
		c3.24,7.83,5.67,14.129,5.67,20.789c0,6.3-1.17,15.749-8.91,15.749c-9.45,0-9.27-13.139-9.27-19.169l7.29-1.08
		c0,2.07,0,11.34,1.98,11.34c1.35,0,1.53-2.16,1.53-6.39c0-5.58-2.07-10.529-5.939-19.799c-1.98-5.31-4.05-11.88-4.05-17.009
		c0-5.76,1.17-15.3,8.37-15.479c8.64-0.18,9,11.969,9,17.459L212.058,29.214z"/>
	<path fill="#D1DFDA" d="M240.577,39.948c0-1.82,0-7.491-1.12-7.491c-0.84,0-0.98,2.101-0.98,5.111c0,3.36,1.4,7,3.431,12.111
		c2.52,6.09,4.41,10.991,4.41,16.171c0,4.901-0.91,12.251-6.931,12.251c-7.351,0-7.21-10.221-7.21-14.912l5.67-0.84
		c0,1.61,0,8.821,1.54,8.821c1.05,0,1.19-1.68,1.19-4.971c0-4.34-1.61-8.191-4.621-15.401c-1.54-4.13-3.15-9.241-3.15-13.231
		c0-4.48,0.91-11.901,6.511-12.042c6.721-0.14,7,9.311,7,13.582L240.577,39.948z"/>
	<path fill="#D1DFDA" d="M262.207,68.231c0,5.881-1.47,9.871-6.511,9.871c-5.53,0-6.44-5.321-6.44-10.081V48.769
		c0-5.321,1.4-10.081,6.581-10.081c5.601,0,6.371,4.48,6.371,9.871V68.231z M256.957,48.069c0.07-1.75-0.07-3.22-1.19-3.22
		c-0.98,0-1.26,1.33-1.26,3.22v20.652c-0.07,1.54,0.21,3.15,1.19,3.15c1.12,0,1.33-2.521,1.26-3.15V48.069z"/>
	<path fill="#D1DFDA" d="M265.776,77.542V45.619h-2.17v-6.371h2.17v-2.24c0.07-4.69,0.35-11.201,5.46-11.201
		c0.91,0,1.75,0.21,2.59,0.7v5.811c-0.771-0.49-1.61-0.42-1.96-0.07c-0.63,0.7-0.63,2.59-0.63,4.341v2.66h2.169v6.371h-2.169v31.923
		H265.776z"/>
	<path fill="#D1DFDA" d="M283.486,29.797v9.451h2.94v6.371h-2.94v31.923h-5.391V45.619h-2.311v-6.371h2.311v-9.451H283.486z"/>
	<path fill="#D1DFDA" d="M288.945,26.086h5.529v14.772c0.211-0.91,1.891-2.17,2.871-2.17c3.57,0,4.271,4.34,4.271,7.491v24.433
		c-0.07,2.73,0.28,7.491-3.15,7.491c-1.82,0-3.641-1.82-3.991-2.66v2.1h-5.529V26.086z M294.475,68.791c0,1.33,0.281,2.66,0.98,2.66
		c0.771,0,0.98-1.26,0.98-2.66V47.369c0-1.33-0.35-2.52-0.98-2.52c-0.699,0-0.98,1.4-0.98,2.52V68.791z"/>
	<path fill="#D1DFDA" d="M311.555,47.999c0-1.19-0.28-3.221-0.91-3.221c-0.7,0-0.98,2.24-0.98,3.221v2.52h-5.32v-2.31
		c0-4.271,1.891-9.521,6.511-9.521c4.271,0,6.021,5.11,5.88,8.681v23.522c0,3.431,0.141,4.971,0.351,6.651h-4.69
		c-0.21-0.35-0.77-1.89-0.84-2.31c-0.561,1.47-1.891,2.87-3.57,2.87c-3.781,0-3.99-7.071-3.99-9.451
		c0-5.32,1.399-10.431,5.32-13.792c0.91-0.77,2.029-1.96,2.24-2.73V47.999z M311.484,59.97c-1.26,1.61-2.45,5.531-2.45,8.611
		c0,0.21,0,2.87,0.979,2.87c0.91,0,1.471-1.26,1.471-2.59V59.97z"/>
	<path fill="#D1DFDA" d="M320.584,77.542V26.086h5.53v51.456H320.584z"/>
	<path fill="#D1DFDA" d="M330.174,77.542V26.086h5.529v51.456H330.174z"/>
	<path fill="#D1DFDA" d="M346.901,42.398v-3.57c0.07-5.111,0.7-13.302,7.001-13.302c6.511,0,6.791,8.331,6.791,12.812
		c0,9.311-4.41,23.242-7.561,31.713h7.21v7.491h-13.581v-7.491c4.131-10.921,8.121-21.142,8.33-31.223
		c0-1.61-0.209-6.301-1.189-6.301c-1.12,0-1.19,5.46-1.19,6.301v3.57H346.901z"/>
	<path fill="#D1DFDA" d="M378.053,67.671c0,5.321-1.681,10.431-7.002,10.431c-5.46,0-7.07-5.531-7.07-10.431V35.958
		c0-5.32,1.82-10.431,7.07-10.431c5.602,0,7.002,6.231,7.002,10.431V67.671z M372.242,35.958c0-1.61-0.351-3.08-1.121-3.08
		c-0.77,0-1.189,1.4-1.189,3.08v31.713c0,1.89,0.56,3.081,1.189,3.081c0.7,0,1.121-1.47,1.121-3.081V35.958z"/>
	<path fill="#D1DFDA" d="M380.15,37.218v-4.69c1.68-0.63,3.08-2.38,3.92-3.78c0.35-0.7,0.7-1.75,0.91-2.661h3.99v51.456h-5.811
		V37.218H380.15z"/>
	<path fill="#D1DFDA" d="M398.279,62.7c0,3.081,0.07,8.751,1.261,8.751c1.12,0,1.19-4.76,1.19-7
		C400.59,56.68,399.96,54.51,396.6,54.3v-6.231c4.061-0.28,3.851-4.621,3.851-8.891c0-2.03,0-6.791-1.05-6.791
		c-1.121,0-1.261,5.601-1.261,8.541h-5.74c0-5.181,0.49-15.402,6.931-15.402c5.67,0,6.931,7.491,6.931,11.481
		c0,7.491-0.771,10.991-3.501,14.281c2.381,1.61,3.641,5.601,3.641,13.092c0,6.721-0.91,13.721-6.86,13.721
		c-6.86,0-6.931-11.131-6.931-15.402H398.279z"/>
</g>
<g id="XMLID_10_">
	<g>
		<path fill="#FFD800" d="M49.78,1.137c13.037,5.362,35.628,3.448,43.729,12.312c-5.522,1.225-10.802-2.33-16.55-2.957
			c-6.296-0.703-13.008-0.68-19.541-1.278c-17.362-1.61-30.502-0.155-42.013,6.366c-6.487,3.67-8.832,10.445-12.73,17.824
			C-3.302,10.203,24.408,1.719,46.386,3.689C47.84,3.142,47.987,1.336,49.78,1.137z"/>
		<path fill="#FFD800" d="M75.25,14.729c0.654-2.643,6.171-2.781,6.8-0.008C80.653,16.729,76.647,16.729,75.25,14.729z"/>
		<path fill="#FFD800" d="M105.812,19.391c3.599-1.32,7.995,1.159,6.374,5.104C109.46,23.681,106.199,21.144,105.812,19.391z"/>
		<path fill="#FFD800" d="M76.535,18.54c8.775,0.313,14.307-2.65,23.768-1.692c-2.323,5.601-9.732,3.039-15.289,3.406
			c-4.104,0.254-8.204,1.216-12.308,0.836c-8.103-0.742-25.779-4.636-35.221-2.127c-5.854,1.567-10.99,9.294-11.045,16.989
			c-0.021,3.496,1.865,7.809,2.54,12.312c1.411,9.289,3.859,19.083,0.001,29.278c-0.093-12.525-10.3-21.896-14.428-32.251
			c-3.966-9.928,1.249-24.114,10.605-27.598c1.666-0.62,3.709-0.377,5.095-0.846c2.292-0.784,3.758-2.562,5.949-2.964
			c3.952-0.734,11.014-0.371,17.405-0.848C63.932,12.238,71.567,12.646,76.535,18.54z"/>
		<path fill="#FFD800" d="M94.349,21.95c5.401-0.521,13.393,1.924,13.172,6.364c-0.217,3.896-6.149,3.601-8.487,2.546
			c-3.889-1.739-2.346-4.175-7.229-5.087c-7.303-1.384-13.715,5.217-17.394,8.899c-4.84,4.841-12.625,15.104-5.958,22.506
			c3.212,3.563,10.754,4.824,11.046,10.186c0.165,3.255-3.506,5.941-5.94,9.764c0.383-8.02-6.994-9.923-11.457-13.592
			c-5.355-4.384-10.205-15.498-6.371-23.34c2.637-5.42,10.126-4.167,13.156-10.607l0.109-4.532
			C79.09,25.289,87.475,22.598,94.349,21.95z"/>
		<path fill="#FFD800" d="M68.996,25.056l-0.109,4.532c-10.052,0.047-15.607,1.882-19.532,7.625
			c-6.533,9.626,2.047,30.029-10.179,34.814C44.517,61.742,37.025,50.5,34.5,41.89c-4.841-16.533,15.511-18.288,31.421-16.982
			C66.958,24.996,67.982,25.045,68.996,25.056z"/>
		<path fill="#FFD800" d="M87.984,39.763c0.181-2.525,1.72-13.155,5.939-8.913C93.055,34.944,90.256,37.091,87.984,39.763z"/>
		<path fill="#FFD800" d="M99.445,34.684c1.063-0.071,1.318,0.662,2.122,0.836c-1.406,1.426-1.406,4.272-3.814,4.674
			C98.137,38.175,98.381,36.023,99.445,34.684z"/>
		<path fill="#FFD800" d="M82.473,52.085c-0.396,2.615-1.661,10.174-6.375,8.493C76.393,55.916,80.831,55.41,82.473,52.085z"/>
		<path fill="#FFD800" d="M85.441,55.062c0.667,2.236,1.031,7.81-0.843,8.901C79.516,62.526,84.964,57.518,85.441,55.062z"/>
	</g>
	<g>
	</g>
</g>
<rect fill="none" width="406.834" height="79.125"/>
</svg>
